<svg width="454" height="43" viewBox="0 0 454 43" fill="none" xmlns="http://www.w3.org/2000/svg">
<path fill-rule="evenodd" clip-rule="evenodd" d="M56.9961 5.00589L52 10.0121V20.0904V30.1687H58.177H64.3539V36.3456V42.5226L74.2553 42.5063L80.0415 42.5052V33.7974L84.4691 29.3698H93.6037V22.3461V12.4466H88.253L82.1756 12.347L82.076 6.26962L81.9765 0.192212L71.9843 0.0959246L61.9922 0L56.9961 5.00589ZM65.444 21.2666V29.0786H73.256H81.0681V21.2666V13.4545H73.256H65.444V21.2666Z" fill="white"/>
<path d="M82.9195 32.1738C83.6193 31.5197 84.7643 30.4028 84.7643 30.4028H87.3471L93.6195 30.329V42.5049H80.8533V34.0924C80.8533 34.0924 82.2196 32.828 82.9195 32.1738Z" fill="white"/>
<path d="M130.444 28.592H135.916V32H125.884L130.444 28.592ZM116.884 23.192C116.884 21.976 117.116 20.824 117.58 19.736C118.044 18.648 118.684 17.688 119.5 16.856C120.332 16.008 121.292 15.344 122.38 14.864C123.468 14.384 124.636 14.144 125.884 14.144C127.116 14.144 128.276 14.384 129.364 14.864C130.452 15.344 131.412 16.008 132.244 16.856C133.092 17.688 133.748 18.648 134.212 19.736C134.692 20.824 134.932 21.976 134.932 23.192C134.932 24.44 134.692 25.608 134.212 26.696C133.748 27.784 133.092 28.744 132.244 29.576C131.412 30.392 130.452 31.032 129.364 31.496C128.276 31.96 127.116 32.192 125.884 32.192C124.636 32.192 123.468 31.96 122.38 31.496C121.292 31.032 120.332 30.392 119.5 29.576C118.684 28.744 118.044 27.784 117.58 26.696C117.116 25.608 116.884 24.44 116.884 23.192ZM120.484 23.192C120.484 23.96 120.62 24.688 120.892 25.376C121.18 26.048 121.572 26.648 122.068 27.176C122.58 27.688 123.164 28.088 123.82 28.376C124.492 28.664 125.22 28.808 126.004 28.808C126.756 28.808 127.452 28.664 128.092 28.376C128.748 28.088 129.316 27.688 129.796 27.176C130.276 26.664 130.652 26.072 130.924 25.4C131.196 24.712 131.332 23.976 131.332 23.192C131.332 22.424 131.188 21.704 130.9 21.032C130.628 20.344 130.244 19.744 129.748 19.232C129.268 18.72 128.7 18.32 128.044 18.032C127.388 17.744 126.676 17.6 125.908 17.6C125.14 17.6 124.428 17.744 123.772 18.032C123.116 18.32 122.54 18.72 122.044 19.232C121.548 19.744 121.164 20.344 120.892 21.032C120.62 21.704 120.484 22.424 120.484 23.192ZM142.505 25.472C142.505 26.032 142.673 26.568 143.009 27.08C143.345 27.592 143.785 28.008 144.329 28.328C144.889 28.648 145.497 28.808 146.153 28.808C146.873 28.808 147.513 28.648 148.073 28.328C148.633 28.008 149.073 27.592 149.393 27.08C149.729 26.568 149.897 26.032 149.897 25.472V14.336H153.329V25.544C153.329 26.84 153.009 27.992 152.369 29C151.729 29.992 150.865 30.776 149.777 31.352C148.689 31.912 147.481 32.192 146.153 32.192C144.841 32.192 143.641 31.912 142.553 31.352C141.481 30.776 140.625 29.992 139.985 29C139.345 27.992 139.025 26.84 139.025 25.544V14.336H142.505V25.472ZM155.065 32L163.033 13.64H163.225L171.193 32H167.161L162.073 19.088L164.593 17.36L158.497 32H155.065ZM160.513 25.616H165.817L167.041 28.544H159.433L160.513 25.616ZM189.584 32.72L176.192 20.624L177.224 21.2L177.296 32H173.768V13.64H173.912L187.016 25.688L186.248 25.352L186.176 14.336H189.68V32.72H189.584ZM193.029 14.336H204.933V17.696H200.637V32H197.157V17.696H193.029V14.336ZM211.412 25.472C211.412 26.032 211.58 26.568 211.916 27.08C212.252 27.592 212.692 28.008 213.236 28.328C213.796 28.648 214.404 28.808 215.06 28.808C215.78 28.808 216.42 28.648 216.98 28.328C217.54 28.008 217.98 27.592 218.3 27.08C218.636 26.568 218.804 26.032 218.804 25.472V14.336H222.236V25.544C222.236 26.84 221.916 27.992 221.276 29C220.636 29.992 219.772 30.776 218.684 31.352C217.596 31.912 216.388 32.192 215.06 32.192C213.748 32.192 212.548 31.912 211.46 31.352C210.388 30.776 209.532 29.992 208.892 29C208.252 27.992 207.932 26.84 207.932 25.544V14.336H211.412V25.472ZM226.432 32V13.616H226.456L236.272 27.536L234.784 27.2L244.576 13.616H244.624V32H241.144V21.464L241.36 23.264L235.384 31.76H235.336L229.192 23.264L229.792 21.608V32H226.432ZM269.475 28.592H274.947V32H264.915L269.475 28.592ZM255.915 23.192C255.915 21.976 256.147 20.824 256.611 19.736C257.075 18.648 257.715 17.688 258.531 16.856C259.363 16.008 260.323 15.344 261.411 14.864C262.499 14.384 263.667 14.144 264.915 14.144C266.147 14.144 267.307 14.384 268.395 14.864C269.483 15.344 270.443 16.008 271.275 16.856C272.123 17.688 272.779 18.648 273.243 19.736C273.723 20.824 273.963 21.976 273.963 23.192C273.963 24.44 273.723 25.608 273.243 26.696C272.779 27.784 272.123 28.744 271.275 29.576C270.443 30.392 269.483 31.032 268.395 31.496C267.307 31.96 266.147 32.192 264.915 32.192C263.667 32.192 262.499 31.96 261.411 31.496C260.323 31.032 259.363 30.392 258.531 29.576C257.715 28.744 257.075 27.784 256.611 26.696C256.147 25.608 255.915 24.44 255.915 23.192ZM259.515 23.192C259.515 23.96 259.651 24.688 259.923 25.376C260.211 26.048 260.603 26.648 261.099 27.176C261.611 27.688 262.195 28.088 262.851 28.376C263.523 28.664 264.251 28.808 265.035 28.808C265.787 28.808 266.483 28.664 267.123 28.376C267.779 28.088 268.347 27.688 268.827 27.176C269.307 26.664 269.683 26.072 269.955 25.4C270.227 24.712 270.363 23.976 270.363 23.192C270.363 22.424 270.219 21.704 269.931 21.032C269.659 20.344 269.275 19.744 268.779 19.232C268.299 18.72 267.731 18.32 267.075 18.032C266.419 17.744 265.707 17.6 264.939 17.6C264.171 17.6 263.459 17.744 262.803 18.032C262.147 18.32 261.571 18.72 261.075 19.232C260.579 19.744 260.195 20.344 259.923 21.032C259.651 21.704 259.515 22.424 259.515 23.192ZM281.537 25.472C281.537 26.032 281.705 26.568 282.041 27.08C282.377 27.592 282.817 28.008 283.361 28.328C283.921 28.648 284.529 28.808 285.185 28.808C285.905 28.808 286.545 28.648 287.105 28.328C287.665 28.008 288.105 27.592 288.425 27.08C288.761 26.568 288.929 26.032 288.929 25.472V14.336H292.361V25.544C292.361 26.84 292.041 27.992 291.401 29C290.761 29.992 289.897 30.776 288.809 31.352C287.721 31.912 286.513 32.192 285.185 32.192C283.873 32.192 282.673 31.912 281.585 31.352C280.513 30.776 279.657 29.992 279.017 29C278.377 27.992 278.057 26.84 278.057 25.544V14.336H281.537V25.472ZM296.557 14.336H308.605V17.696H300.037V21.464H307.621V24.824H300.037V28.64H308.941V32H296.557V14.336ZM321.974 18.608C321.302 18.24 320.614 17.936 319.91 17.696C319.222 17.456 318.574 17.336 317.966 17.336C317.214 17.336 316.622 17.488 316.19 17.792C315.758 18.096 315.542 18.552 315.542 19.16C315.542 19.576 315.702 19.952 316.022 20.288C316.358 20.608 316.782 20.896 317.294 21.152C317.822 21.408 318.366 21.64 318.926 21.848C319.438 22.04 319.942 22.272 320.438 22.544C320.95 22.8 321.406 23.128 321.806 23.528C322.206 23.912 322.526 24.4 322.766 24.992C323.006 25.568 323.126 26.28 323.126 27.128C323.126 28.024 322.894 28.856 322.43 29.624C321.966 30.392 321.286 31.016 320.39 31.496C319.494 31.96 318.39 32.192 317.078 32.192C316.406 32.192 315.718 32.128 315.014 32C314.326 31.856 313.646 31.648 312.974 31.376C312.302 31.088 311.654 30.728 311.03 30.296L312.566 27.584C312.982 27.888 313.43 28.16 313.91 28.4C314.406 28.624 314.902 28.8 315.398 28.928C315.894 29.056 316.35 29.12 316.766 29.12C317.182 29.12 317.598 29.064 318.014 28.952C318.446 28.824 318.798 28.616 319.07 28.328C319.358 28.04 319.502 27.64 319.502 27.128C319.502 26.776 319.382 26.456 319.142 26.168C318.918 25.88 318.606 25.616 318.206 25.376C317.822 25.136 317.398 24.928 316.934 24.752C316.39 24.544 315.83 24.304 315.254 24.032C314.678 23.76 314.134 23.432 313.622 23.048C313.126 22.648 312.718 22.16 312.398 21.584C312.094 20.992 311.942 20.272 311.942 19.424C311.942 18.4 312.166 17.512 312.614 16.76C313.078 16.008 313.726 15.416 314.558 14.984C315.39 14.536 316.35 14.288 317.438 14.24C318.862 14.24 320.014 14.408 320.894 14.744C321.79 15.08 322.59 15.48 323.294 15.944L321.974 18.608ZM325.334 14.336H337.238V17.696H332.942V32H329.462V17.696H325.334V14.336Z" fill="white"/>
</svg>
